<svg xmlns="http://www.w3.org/2000/svg" viewBox="0 0 256 256" width="256" height="256"><path d="M -135.0,210.0 A 175,175 0 0 1 215.0,210.0 Z" fill="#fbf7ee" stroke="#3b2a1a" stroke-width="5" stroke-linejoin="round"/><path d="M -110.0,210.0 A 150,150 0 0 1 190.0,210.0" fill="none" stroke="#e6dcc6" stroke-width="5"/><line x1="-135.0" y1="210.0" x2="215.0" y2="210.0" stroke="#3b2a1a" stroke-width="5" stroke-linecap="round"/><line x1="200.0" y1="210.0" x2="218.0" y2="210.0" stroke="#3b2a1a" stroke-width="2.2" opacity="0.6" stroke-linecap="round"/><line x1="194.5" y1="168.6" x2="211.9" y2="163.9" stroke="#3b2a1a" stroke-width="2.2" opacity="0.6" stroke-linecap="round"/><line x1="178.6" y1="130.0" x2="194.2" y2="121.0" stroke="#3b2a1a" stroke-width="2.2" opacity="0.6" stroke-linecap="round"/><line x1="153.1" y1="96.9" x2="165.9" y2="84.1" stroke="#3b2a1a" stroke-width="2.2" opacity="0.6" stroke-linecap="round"/><line x1="120.0" y1="71.4" x2="129.0" y2="55.8" stroke="#3b2a1a" stroke-width="2.2" opacity="0.6" stroke-linecap="round"/><line x1="81.4" y1="55.5" x2="86.1" y2="38.1" stroke="#e0392f" stroke-width="4.5" opacity="1.0" stroke-linecap="round"/><line x1="40.0" y1="50.0" x2="40.0" y2="32.0" stroke="#3b2a1a" stroke-width="2.2" opacity="0.6" stroke-linecap="round"/><line x1="40.0" y1="210.0" x2="78.8" y2="65.1" stroke="#3b2a1a" stroke-width="17" stroke-linecap="round"/><line x1="40.0" y1="210.0" x2="78.8" y2="65.1" stroke="#61bb46" stroke-width="11" stroke-linecap="round"/><line x1="54.5" y1="172.5" x2="44.9" y2="175.1" stroke="#4a9a37" stroke-width="2.4" opacity="0.8"/><line x1="62.3" y1="143.5" x2="52.6" y2="146.1" stroke="#4a9a37" stroke-width="2.4" opacity="0.8"/><line x1="70.1" y1="114.5" x2="60.4" y2="117.1" stroke="#4a9a37" stroke-width="2.4" opacity="0.8"/><line x1="77.8" y1="85.6" x2="68.2" y2="88.1" stroke="#4a9a37" stroke-width="2.4" opacity="0.8"/><circle cx="92.5" cy="70.6" r="6.1" fill="#ff7ab8"/><circle cx="84.6" cy="78.7" r="6.1" fill="#ff7ab8"/><circle cx="73.3" cy="78.8" r="6.1" fill="#ff7ab8"/><circle cx="65.2" cy="70.9" r="6.1" fill="#ff7ab8"/><circle cx="65.1" cy="59.6" r="6.1" fill="#ff7ab8"/><circle cx="73.1" cy="51.5" r="6.1" fill="#ff7ab8"/><circle cx="84.4" cy="51.4" r="6.1" fill="#ff7ab8"/><circle cx="92.4" cy="59.3" r="6.1" fill="#ff7ab8"/><circle cx="78.8" cy="65.1" r="18.0" fill="#ff7ab8" stroke="#3b2a1a" stroke-width="4"/><circle cx="73.4" cy="59.7" r="5.4" fill="#ffb0d3"/><circle cx="40.0" cy="210.0" r="15.0" fill="#c9ced9" stroke="#3b2a1a" stroke-width="4"/><circle cx="40.0" cy="210.0" r="6.3" fill="#9aa1c0"/><ellipse cx="35.2" cy="205.2" rx="4.2" ry="2.7" fill="#c3c8dc" opacity="0.9"/></svg>