<svg xmlns="http://www.w3.org/2000/svg" viewBox="0 0 320 256" width="320" height="256">
<rect x="12.0" y="190.0" width="296.0" height="34.0" rx="8" fill="#e9c48a" stroke="#3b2a1a" stroke-width="5" stroke-linejoin="round" />
<line x1="20.0" y1="207.0" x2="300.0" y2="207.0" stroke="#c99a5b" stroke-width="2" stroke-linecap="round" />
<rect x="14.0" y="46.0" width="182.0" height="150.0" rx="12" fill="#c89a64" stroke="#3b2a1a" stroke-width="5" stroke-linejoin="round" />
<rect x="26.0" y="66.0" width="34.0" height="116.0" rx="7.48" fill="#3b3b3b" stroke="#3b2a1a" stroke-width="4" stroke-linejoin="round" />
<rect x="32.1" y="56.3" width="21.8" height="16.2" rx="6.12" fill="#c9ced9" stroke="#3b2a1a" stroke-width="3" stroke-linejoin="round" />
<rect x="26.0" y="133.3" width="34.0" height="18.6" rx="2" fill="#e0892f"  />
<rect x="26.0" y="133.3" width="34.0" height="18.6" fill="none" stroke="#3b2a1a" stroke-width="3"/>
<rect x="68.0" y="66.0" width="34.0" height="116.0" rx="7.48" fill="#3b3b3b" stroke="#3b2a1a" stroke-width="4" stroke-linejoin="round" />
<rect x="74.1" y="56.3" width="21.8" height="16.2" rx="6.12" fill="#c9ced9" stroke="#3b2a1a" stroke-width="3" stroke-linejoin="round" />
<rect x="68.0" y="133.3" width="34.0" height="18.6" rx="2" fill="#e0892f"  />
<rect x="68.0" y="133.3" width="34.0" height="18.6" fill="none" stroke="#3b2a1a" stroke-width="3"/>
<rect x="110.0" y="66.0" width="34.0" height="116.0" rx="7.48" fill="#3b3b3b" stroke="#3b2a1a" stroke-width="4" stroke-linejoin="round" />
<rect x="116.1" y="56.3" width="21.8" height="16.2" rx="6.12" fill="#c9ced9" stroke="#3b2a1a" stroke-width="3" stroke-linejoin="round" />
<rect x="110.0" y="133.3" width="34.0" height="18.6" rx="2" fill="#e0892f"  />
<rect x="110.0" y="133.3" width="34.0" height="18.6" fill="none" stroke="#3b2a1a" stroke-width="3"/>
<rect x="152.0" y="66.0" width="34.0" height="116.0" rx="7.48" fill="#3b3b3b" stroke="#3b2a1a" stroke-width="4" stroke-linejoin="round" />
<rect x="158.1" y="56.3" width="21.8" height="16.2" rx="6.12" fill="#c9ced9" stroke="#3b2a1a" stroke-width="3" stroke-linejoin="round" />
<rect x="152.0" y="133.3" width="34.0" height="18.6" rx="2" fill="#e0892f"  />
<rect x="152.0" y="133.3" width="34.0" height="18.6" fill="none" stroke="#3b2a1a" stroke-width="3"/>
<rect x="230.0" y="76.0" width="82.0" height="76.0" rx="13.68" fill="#c9ced9" stroke="#3b2a1a" stroke-width="5" stroke-linejoin="round" />
<circle cx="230.0" cy="114.0" r="41.8" fill="#9aa1c0" stroke="#3b2a1a" stroke-width="4" />
<rect x="212.0" y="103.4" width="22.0" height="21.3" rx="3" fill="#6b7399" stroke="#3b2a1a" stroke-width="3" stroke-linejoin="round" />
<circle cx="307.0" cy="97.3" r="5.3" fill="#e0392f" stroke="#3b2a1a" stroke-width="2" />
<circle cx="307.0" cy="130.7" r="5.3" fill="#222222" stroke="#3b2a1a" stroke-width="2" />
<g transform="rotate(18 200 114)">
<ellipse cx="200.0" cy="80.0" rx="10.0" ry="34.0" fill="#9aa1c0" stroke="#3b2a1a" stroke-width="4" />
<ellipse cx="200.0" cy="148.0" rx="10.0" ry="34.0" fill="#9aa1c0" stroke="#3b2a1a" stroke-width="4" />
</g>
<circle cx="200.0" cy="114.0" r="9.0" fill="#6b7399" stroke="#3b2a1a" stroke-width="3" />
<line x1="212.0" y1="96.0" x2="118.0" y2="70.0" stroke="#e0392f" stroke-width="5" stroke-linecap="round" />
<line x1="212.0" y1="132.0" x2="150.0" y2="176.0" stroke="#222222" stroke-width="5" stroke-linecap="round" />
<polygon points="258.0,40.0 238.0,78.0 252.0,78.0 240.0,112.0 272.0,68.0 256.0,68.0" fill="#f2c230" stroke="#3b2a1a" stroke-width="3" stroke-linejoin="round" />
</svg>
