<svg xmlns="http://www.w3.org/2000/svg" viewBox="0 0 512 128" width="512" height="128">
<rect x="4.0" y="4.0" width="504.0" height="120.0" rx="10" fill="#c89a64" stroke="#3b2a1a" stroke-width="5" stroke-linejoin="round" />
<rect x="4" y="66" width="504" height="58" fill="#a67a48" opacity="0.35"/>
<line x1="30.0" y1="14.0" x2="30.0" y2="114.0" stroke="#8d6538" stroke-width="3" stroke-linecap="round" />
<line x1="56.0" y1="14.0" x2="56.0" y2="114.0" stroke="#8d6538" stroke-width="3" stroke-linecap="round" />
<line x1="82.0" y1="14.0" x2="82.0" y2="114.0" stroke="#8d6538" stroke-width="3" stroke-linecap="round" />
<line x1="108.0" y1="14.0" x2="108.0" y2="114.0" stroke="#8d6538" stroke-width="3" stroke-linecap="round" />
<line x1="134.0" y1="14.0" x2="134.0" y2="114.0" stroke="#8d6538" stroke-width="3" stroke-linecap="round" />
<line x1="160.0" y1="14.0" x2="160.0" y2="114.0" stroke="#8d6538" stroke-width="3" stroke-linecap="round" />
<line x1="186.0" y1="14.0" x2="186.0" y2="114.0" stroke="#8d6538" stroke-width="3" stroke-linecap="round" />
<line x1="212.0" y1="14.0" x2="212.0" y2="114.0" stroke="#8d6538" stroke-width="3" stroke-linecap="round" />
<line x1="238.0" y1="14.0" x2="238.0" y2="114.0" stroke="#8d6538" stroke-width="3" stroke-linecap="round" />
<line x1="264.0" y1="14.0" x2="264.0" y2="114.0" stroke="#8d6538" stroke-width="3" stroke-linecap="round" />
<line x1="290.0" y1="14.0" x2="290.0" y2="114.0" stroke="#8d6538" stroke-width="3" stroke-linecap="round" />
<line x1="316.0" y1="14.0" x2="316.0" y2="114.0" stroke="#8d6538" stroke-width="3" stroke-linecap="round" />
<line x1="342.0" y1="14.0" x2="342.0" y2="114.0" stroke="#8d6538" stroke-width="3" stroke-linecap="round" />
<line x1="368.0" y1="14.0" x2="368.0" y2="114.0" stroke="#8d6538" stroke-width="3" stroke-linecap="round" />
<line x1="394.0" y1="14.0" x2="394.0" y2="114.0" stroke="#8d6538" stroke-width="3" stroke-linecap="round" />
<line x1="420.0" y1="14.0" x2="420.0" y2="114.0" stroke="#8d6538" stroke-width="3" stroke-linecap="round" />
<line x1="446.0" y1="14.0" x2="446.0" y2="114.0" stroke="#8d6538" stroke-width="3" stroke-linecap="round" />
<line x1="472.0" y1="14.0" x2="472.0" y2="114.0" stroke="#8d6538" stroke-width="3" stroke-linecap="round" />
<ellipse cx="256.0" cy="64.0" rx="92.0" ry="23.0" fill="#241a10" stroke="#3b2a1a" stroke-width="4" />
<ellipse cx="256.0" cy="60.0" rx="30.0" ry="10.0" fill="#fbf7ee" stroke="#3b2a1a" stroke-width="3" />
<rect x="60" y="16" width="26" height="60" rx="4" fill="#f3e3b3" stroke="#3b2a1a" stroke-width="3" transform="rotate(12 73 46)"/>
<rect x="426" y="16" width="26" height="60" rx="4" fill="#f3e3b3" stroke="#3b2a1a" stroke-width="3" transform="rotate(-12 439 46)"/>
<polygon points="150.0,15.0 145.9,26.3 133.8,26.7 143.3,34.2 140.0,45.8 150.0,39.0 160.0,45.8 156.7,34.2 166.2,26.7 154.1,26.3" fill="#f2c230" stroke="#3b2a1a" stroke-width="3" stroke-linejoin="round" />
<circle cx="380.0" cy="96.0" r="15.0" fill="#2f7fd6" stroke="#3b2a1a" stroke-width="3" />
<ellipse cx="380" cy="96" rx="26" ry="9" fill="none" stroke="#3b2a1a" stroke-width="3" transform="rotate(-18 380 96)"/>
<ellipse cx="380" cy="96" rx="26" ry="9" fill="none" stroke="#f2c230" stroke-width="2" transform="rotate(-18 380 96)"/>
</svg>
