<svg xmlns="http://www.w3.org/2000/svg" viewBox="0 0 256 256" width="256" height="256">
<rect x="20.0" y="222.0" width="216.0" height="10.0" rx="2" fill="#e9c48a" stroke="#3b2a1a" stroke-width="4" stroke-linejoin="round" />
<line x1="20.0" y1="210.0" x2="20.0" y2="222.0" stroke="#c99a5b" stroke-width="3" stroke-linecap="round" />
<line x1="47.0" y1="210.0" x2="47.0" y2="222.0" stroke="#c99a5b" stroke-width="3" stroke-linecap="round" />
<line x1="74.0" y1="210.0" x2="74.0" y2="222.0" stroke="#c99a5b" stroke-width="3" stroke-linecap="round" />
<line x1="101.0" y1="210.0" x2="101.0" y2="222.0" stroke="#c99a5b" stroke-width="3" stroke-linecap="round" />
<line x1="128.0" y1="210.0" x2="128.0" y2="222.0" stroke="#c99a5b" stroke-width="3" stroke-linecap="round" />
<line x1="155.0" y1="210.0" x2="155.0" y2="222.0" stroke="#c99a5b" stroke-width="3" stroke-linecap="round" />
<line x1="182.0" y1="210.0" x2="182.0" y2="222.0" stroke="#c99a5b" stroke-width="3" stroke-linecap="round" />
<line x1="209.0" y1="210.0" x2="209.0" y2="222.0" stroke="#c99a5b" stroke-width="3" stroke-linecap="round" />
<line x1="236.0" y1="210.0" x2="236.0" y2="222.0" stroke="#c99a5b" stroke-width="3" stroke-linecap="round" />
<circle cx="128.0" cy="146.0" r="76.0" fill="#2f7fd6" stroke="#3b2a1a" stroke-width="5" />
<line x1="193.4" y1="146.0" x2="203.2" y2="146.0" stroke="#1f5ea8" stroke-width="4.56" stroke-linecap="round" />
<line x1="189.4" y1="168.4" x2="198.7" y2="171.7" stroke="#1f5ea8" stroke-width="4.56" stroke-linecap="round" />
<line x1="178.1" y1="188.0" x2="185.6" y2="194.4" stroke="#1f5ea8" stroke-width="4.56" stroke-linecap="round" />
<line x1="160.7" y1="202.6" x2="165.6" y2="211.2" stroke="#1f5ea8" stroke-width="4.56" stroke-linecap="round" />
<line x1="139.3" y1="210.4" x2="141.1" y2="220.1" stroke="#1f5ea8" stroke-width="4.56" stroke-linecap="round" />
<line x1="116.7" y1="210.4" x2="114.9" y2="220.1" stroke="#1f5ea8" stroke-width="4.56" stroke-linecap="round" />
<line x1="95.3" y1="202.6" x2="90.4" y2="211.2" stroke="#1f5ea8" stroke-width="4.56" stroke-linecap="round" />
<line x1="77.9" y1="188.0" x2="70.4" y2="194.4" stroke="#1f5ea8" stroke-width="4.56" stroke-linecap="round" />
<line x1="66.6" y1="168.4" x2="57.3" y2="171.7" stroke="#1f5ea8" stroke-width="4.56" stroke-linecap="round" />
<line x1="62.6" y1="146.0" x2="52.8" y2="146.0" stroke="#1f5ea8" stroke-width="4.56" stroke-linecap="round" />
<line x1="66.6" y1="123.6" x2="57.3" y2="120.3" stroke="#1f5ea8" stroke-width="4.56" stroke-linecap="round" />
<line x1="77.9" y1="104.0" x2="70.4" y2="97.6" stroke="#1f5ea8" stroke-width="4.56" stroke-linecap="round" />
<line x1="95.3" y1="89.4" x2="90.4" y2="80.8" stroke="#1f5ea8" stroke-width="4.56" stroke-linecap="round" />
<line x1="116.7" y1="81.6" x2="114.9" y2="71.9" stroke="#1f5ea8" stroke-width="4.56" stroke-linecap="round" />
<line x1="139.3" y1="81.6" x2="141.1" y2="71.9" stroke="#1f5ea8" stroke-width="4.56" stroke-linecap="round" />
<line x1="160.7" y1="89.4" x2="165.6" y2="80.8" stroke="#1f5ea8" stroke-width="4.56" stroke-linecap="round" />
<line x1="178.1" y1="104.0" x2="185.6" y2="97.6" stroke="#1f5ea8" stroke-width="4.56" stroke-linecap="round" />
<line x1="189.4" y1="123.6" x2="198.7" y2="120.3" stroke="#1f5ea8" stroke-width="4.56" stroke-linecap="round" />
<circle cx="128.0" cy="146.0" r="59.3" fill="#1f5ea8" stroke="#3b2a1a" stroke-width="4" />
<ellipse cx="106.7" cy="123.2" rx="22.8" ry="13.7" fill="#ffffff"  opacity="0.28"/>
<circle cx="128.0" cy="146.0" r="10.6" fill="#c9ced9" stroke="#3b2a1a" stroke-width="4" />
<circle cx="128.0" cy="146.0" r="4.3" fill="#6b7399"  />
</svg>
